<?xml version="1.0" encoding="UTF-8" standalone="no"?>
<!-- Created with Inkscape (http://www.inkscape.org/) -->

<svg
   width="512"
   height="512"
   viewBox="0 0 135.46667 135.46667"
   version="1.1"
   id="svg1"
   xmlns="http://www.w3.org/2000/svg"
   xmlns:svg="http://www.w3.org/2000/svg">
  <defs
     id="defs1" />
  <g
     id="layer1">
    <path
       id="rect1"
       style="fill:#000000;stroke-width:0.326845"
       d="M 0,0 V 80.868449 C 0.17647631,80.012811 0.43851103,79.224601 0.7865153,78.503735 1.509374,77.024397 2.5267767,75.889393 3.8380086,75.099292 5.1660513,74.29238 6.7209096,73.88903 8.5028402,73.88903 c 1.5970138,0 2.9837228,0.302771 4.1604698,0.907955 1.193557,0.605184 2.126885,1.44541 2.799312,2.521293 0.672427,1.075883 1.025229,2.311465 1.05885,3.70675 H 12.0835 c -0.134485,-0.941397 -0.51282,-1.714571 -1.134814,-2.319755 -0.605184,-0.605184 -1.4033734,-0.907438 -2.3952029,-0.907438 -1.3280426,0 -2.3789717,0.537456 -3.1522624,1.613339 -0.75648,1.075882 -1.1348143,2.52165 -1.1348145,4.337202 0,1.781931 0.3783345,3.219189 1.1348145,4.311882 0.7732907,1.092693 1.8662569,1.639176 3.2783529,1.639176 0.806912,0 1.4539744,-0.168148 1.9414834,-0.504362 0.50432,-0.336213 0.882655,-0.773089 1.134815,-1.311031 0.25216,-0.554752 0.411797,-1.143272 0.47904,-1.765267 h 4.412651 c -0.06724,1.563392 -0.445577,2.900071 -1.134815,4.009575 -0.672426,1.109504 -1.596727,1.958241 -2.773474,2.546614 -1.159936,0.588374 -2.53014,0.882634 -4.1103433,0.882634 -1.8323626,0 -3.4127533,-0.394839 -4.7407959,-1.184941 C 2.5600922,91.565744 1.5346954,90.430741 0.81183675,88.968213 0.45125917,88.230287 0.18071366,87.425668 0,86.55389 v 48.91278 H 135.46667 V 0 Z m 18.967318,74.267301 h 4.085022 v 6.203239 c 0.453888,-0.655616 1.008882,-1.160062 1.664498,-1.513086 0.655616,-0.353024 1.386752,-0.529683 2.193664,-0.529683 1.075883,0 2.008694,0.227207 2.798796,0.681095 0.790101,0.453888 1.395643,1.084446 1.81591,1.891358 0.437077,0.806912 0.655257,1.739723 0.655257,2.798795 v 9.380306 H 28.095443 V 84.63101 c 0,-0.823723 -0.226691,-1.479296 -0.680579,-1.966805 -0.437077,-0.487509 -1.042102,-0.731222 -1.815393,-0.731222 -0.790101,0 -1.412148,0.28575 -1.866036,0.857312 -0.453888,0.554752 -0.681095,1.2944 -0.681095,2.218986 v 8.170044 h -4.085022 z m 41.1024,0 H 64.15474 V 93.179325 H 60.700171 L 60.397347,91.21252 c -0.874155,1.563392 -2.210833,2.345077 -4.009574,2.345077 -1.328043,0 -2.504567,-0.319276 -3.530017,-0.958081 -1.00864,-0.655616 -1.807347,-1.554901 -2.39572,-2.698027 -0.571563,-1.159936 -0.857312,-2.488103 -0.857312,-3.984253 0,-1.462528 0.269245,-2.757169 0.807186,-3.883484 0.537941,-1.126314 1.2861,-2.008578 2.244307,-2.647383 0.958208,-0.638806 2.050658,-0.958598 3.277837,-0.958598 0.857344,0 1.639028,0.151644 2.345076,0.454236 0.722859,0.302592 1.31989,0.75649 1.790588,1.361674 z m -25.544177,4.538741 h 4.085022 v 8.598959 c 0,0.77329 0.227208,1.403331 0.681096,1.89084 0.453888,0.48751 1.033897,0.731739 1.739945,0.731739 0.706048,0 1.286057,-0.244229 1.739945,-0.731739 0.453888,-0.487509 0.680579,-1.11755 0.680579,-1.89084 v -8.598959 h 4.085022 v 8.447547 c 0,1.227179 -0.277238,2.319628 -0.83199,3.277836 -0.554752,0.941397 -1.319932,1.681561 -2.294951,2.219503 -0.975019,0.537941 -2.100994,0.806669 -3.378605,0.806669 -1.2608,0 -2.387293,-0.268728 -3.379122,-0.806669 -0.975019,-0.537942 -1.739681,-1.278106 -2.294433,-2.219503 -0.554752,-0.958208 -0.832508,-2.050657 -0.832508,-3.277836 z m 22.467879,2.975529 c -0.991829,0 -1.782024,0.369824 -2.370398,1.109493 -0.571562,0.722859 -0.857312,1.714729 -0.857312,2.975529 0,1.2608 0.28575,2.261182 0.857312,3.000851 0.588374,0.739669 1.378569,1.109493 2.370398,1.109493 0.941398,0 1.689039,-0.369824 2.243791,-1.109493 0.554752,-0.739669 0.832507,-1.740051 0.832507,-3.000851 0,-1.2608 -0.277755,-2.25267 -0.832507,-2.975529 -0.554752,-0.739669 -1.302393,-1.109493 -2.243791,-1.109493 z M 36.517668,104.6024 c 0.638805,0 1.176777,0.19316 1.613855,0.57981 0.453888,0.38665 0.681095,0.88258 0.681095,1.48776 0,0.622 -0.227207,1.12644 -0.681095,1.51309 -0.437078,0.38665 -0.97505,0.57981 -1.613855,0.57981 -0.655616,0 -1.210093,-0.19316 -1.663981,-0.57981 -0.437078,-0.38665 -0.655774,-0.89109 -0.655774,-1.51309 0,-0.60518 0.218696,-1.10111 0.655774,-1.48776 0.453888,-0.38665 1.008365,-0.57981 1.663981,-0.57981 z m 60.442822,0 c 0.638805,0 1.176778,0.19316 1.613855,0.57981 0.453888,0.38665 0.681095,0.88258 0.681095,1.48776 0,0.622 -0.227207,1.12644 -0.681095,1.51309 -0.437077,0.38665 -0.97505,0.57981 -1.613855,0.57981 -0.655616,0 -1.210093,-0.19316 -1.663981,-0.57981 -0.437078,-0.38665 -0.655774,-0.89109 -0.655774,-1.51309 0,-0.60518 0.218696,-1.10111 0.655774,-1.48776 0.453888,-0.38665 1.008365,-0.57981 1.663981,-0.57981 z M 0.18138428,105.78734 H 4.6193563 v 11.59929 c 0,1.19356 0.3277865,2.1434 0.9834025,2.84944 0.655616,0.70605 1.5383964,1.05937 2.6479004,1.05937 1.1431252,0 2.0424108,-0.35332 2.6980268,-1.05937 0.655616,-0.70604 0.983402,-1.65588 0.983402,-2.84944 v -11.59929 h 4.437972 v 11.59929 c 0,1.5634 -0.344291,2.92509 -1.033528,4.08503 -0.672427,1.14312 -1.613749,2.03389 -2.824117,2.6727 -1.210368,0.62199 -2.6140994,0.93328 -4.2111129,0.93328 -1.613824,0 -3.0345767,-0.31129 -4.2617554,-0.93328 -1.210368,-0.63881 -2.1602012,-1.52958 -2.8494385,-2.6727 -0.67242664,-1.15994 -1.00872392,-2.52163 -1.00872392,-4.08503 z M 103.51668,106.54388 h 4.08502 v 3.7822 h 2.92489 v 3.27836 h -2.92489 v 6.48022 c 0,0.31941 0.1011,0.58014 0.30282,0.78186 0.20173,0.20173 0.45344,0.30283 0.75603,0.30283 h 2.29495 v 3.53002 h -3.53053 c -1.17675,0 -2.12658,-0.35281 -2.84944,-1.05885 -0.70605,-0.72286 -1.05885,-1.6727 -1.05885,-2.84944 v -7.18664 h -2.3704 v -3.27836 h 2.3704 z m -78.16939,3.40393 c 1.328043,0 2.479551,0.26073 3.45457,0.78187 0.975018,0.50432 1.723176,1.22695 2.244307,2.16834 0.537941,0.9414 0.806669,2.05938 0.806669,3.3538 v 8.44755 h -4.085022 v -8.39691 c 0,-0.90777 -0.22669,-1.60539 -0.680578,-2.09289 -0.437078,-0.48752 -1.017087,-0.73123 -1.739946,-0.73123 -0.706048,0 -1.286057,0.24371 -1.739945,0.73123 -0.453888,0.4875 -0.681096,1.18512 -0.681096,2.09289 v 8.39691 h -4.085022 v -8.44755 c 0,-1.29442 0.260734,-2.4124 0.781865,-3.3538 0.537941,-0.94139 1.29461,-1.66402 2.269629,-2.16834 0.975018,-0.52114 2.126526,-0.78187 3.454569,-0.78187 z m 36.714555,0 c 1.496149,0 2.765258,0.3363 3.807519,1.00872 1.059072,0.67243 1.849268,1.64779 2.370398,2.92541 0.537942,1.2776 0.764632,2.81544 0.680579,4.61419 h -9.884668 c 0.134485,1.07588 0.487287,1.91662 1.05885,2.52181 0.571563,0.60518 1.311727,0.90743 2.219503,0.90743 0.739669,0 1.344694,-0.17614 1.815393,-0.52916 0.470699,-0.36984 0.764959,-0.81523 0.882633,-1.33635 h 3.80752 c -0.168107,1.04226 -0.563463,1.94154 -1.185457,2.69802 -0.605184,0.73967 -1.378358,1.31117 -2.319755,1.71463 -0.941398,0.40345 -2.000321,0.60513 -3.177068,0.60513 -1.462528,0 -2.731636,-0.30278 -3.807519,-0.90796 -1.075883,-0.622 -1.916626,-1.49626 -2.52181,-2.62258 -0.588373,-1.14312 -0.882633,-2.4878 -0.882633,-4.03438 0,-1.54658 0.29426,-2.88274 0.882633,-4.00905 0.588373,-1.12632 1.412095,-2.00058 2.471167,-2.62258 1.075883,-0.622 2.336998,-0.93328 3.782715,-0.93328 z m 15.356169,0 c 0.218538,0 0.563346,0.017 1.034045,0.0506 0.470699,0.0168 0.941101,0.0753 1.4118,0.17622 v 3.50521 c -0.319403,-0.0504 -0.621657,-0.0924 -0.907438,-0.12609 -0.285781,-0.0505 -0.605057,-0.0755 -0.958081,-0.0755 -0.521131,0 -1.009072,0.0756 -1.46296,0.22686 -0.453888,0.1513 -0.823712,0.43705 -1.109493,0.85732 -0.268971,0.42026 -0.403076,1.0338 -0.403076,1.84071 v 8.29614 h -4.085022 v -8.32146 c 0,-2.06771 0.554477,-3.6561 1.663981,-4.7656 1.126315,-1.10951 2.731721,-1.6645 4.816244,-1.6645 z m 9.330179,0 c 1.126315,0 2.126179,0.20167 3.000334,0.60513 0.874155,0.38664 1.563771,0.93312 2.068091,1.63918 0.50432,0.68923 0.756543,1.49645 0.756543,2.42104 H 88.74032 c 0,-0.50432 -0.227208,-0.92469 -0.681096,-1.26091 -0.437077,-0.33621 -0.958028,-0.50436 -1.563212,-0.50436 -0.420266,0 -0.840638,0.10058 -1.260905,0.30231 -0.420266,0.20173 -0.630452,0.52952 -0.630452,0.9834 0,0.3026 0.134622,0.56333 0.403593,0.78187 0.268971,0.20173 0.789921,0.41192 1.563212,0.63045 0.285781,0.0673 0.622079,0.15132 1.008724,0.25218 0.403456,0.10087 0.798295,0.20196 1.184941,0.30282 0.386645,0.0841 0.706437,0.16813 0.958597,0.25218 1.092694,0.3194 1.882372,0.80683 2.369882,1.46245 0.50432,0.65562 0.756542,1.47934 0.756542,2.47116 0,1.51296 -0.52095,2.68949 -1.563212,3.53002 -1.02545,0.84054 -2.462708,1.26091 -4.311881,1.26091 -1.933227,0 -3.454559,-0.44539 -4.564063,-1.33636 -1.109504,-0.90777 -1.664497,-2.14335 -1.664497,-3.70675 h 3.605981 c 0.134485,0.72286 0.428745,1.25232 0.882633,1.58854 0.453888,0.33621 1.016876,0.50436 1.689303,0.50436 0.588373,0 1.075798,-0.1176 1.462443,-0.35295 0.386645,-0.23535 0.580326,-0.57165 0.580326,-1.00872 0,-0.33622 -0.151643,-0.58844 -0.454235,-0.75655 -0.285782,-0.1681 -0.831748,-0.35327 -1.63866,-0.555 -0.571563,-0.13448 -1.076009,-0.25209 -1.513086,-0.35295 -0.420267,-0.11768 -0.874165,-0.26029 -1.361674,-0.4284 -0.571563,-0.20173 -1.101024,-0.44544 -1.588534,-0.73122 -0.470698,-0.28578 -0.857544,-0.67263 -1.160136,-1.16014 -0.285781,-0.50432 -0.428397,-1.15989 -0.428397,-1.9668 0,-0.90778 0.176143,-1.67244 0.529167,-2.29444 0.353024,-0.62199 0.823943,-1.11793 1.412316,-1.48776 0.588374,-0.38665 1.226925,-0.6644 1.916163,-0.83251 0.706048,-0.1681 1.395664,-0.25218 2.06809,-0.25218 z m -52.272778,0.37827 h 4.085022 v 14.37329 h -4.085022 z m 5.597591,0 h 4.211113 l 3.101619,9.53172 3.026172,-9.53172 h 4.110343 l -3.858162,11.01948 c -0.487509,1.39529 -0.974934,2.37014 -1.462443,2.92489 -0.470699,0.53794 -1.076241,0.80719 -1.81591,0.80719 -0.75648,0 -1.378527,-0.26925 -1.866036,-0.80719 -0.487509,-0.53794 -0.974934,-1.49577 -1.462443,-2.87424 z m 54.845231,0 h 4.085022 v 14.37329 h -4.085022 z m 16.566943,0 h 4.28656 l 3.17707,7.96851 3.15226,-7.96851 h 4.26124 l -7.48895,18.91203 h -4.26175 l 2.19418,-5.57279 z m -49.39853,2.74867 c -0.823723,0 -1.504312,0.26925 -2.042253,0.80719 -0.537941,0.52112 -0.874239,1.22673 -1.008724,2.1177 h 5.850289 c -0.06724,-1.05908 -0.378524,-1.80672 -0.933276,-2.24379 -0.554752,-0.45389 -1.176799,-0.6811 -1.866036,-0.6811 z" />
  </g>
</svg>
